<svg width="134" height="85" viewBox="0 0 134 85" fill="none" xmlns="http://www.w3.org/2000/svg">
<path d="M132.945 8.64685C133.323 7.90927 133.03 7.00557 132.293 6.62838L120.273 0.481747C119.536 0.104558 118.632 0.396716 118.255 1.13429C117.878 1.87187 118.17 2.77557 118.907 3.15276L129.591 8.61643L124.128 19.3005C123.751 20.038 124.043 20.9417 124.78 21.3189C125.518 21.6961 126.422 21.4039 126.799 20.6664L132.945 8.64685ZM2.74125 84.0494C23.5539 64.2016 41.0899 50.3349 60.7898 39.0381C80.4976 27.7368 102.428 18.9743 132.071 9.39116L131.148 6.53662C101.418 16.1479 79.2647 24.9855 59.2974 36.4356C39.3223 47.8902 21.5929 61.9262 0.670854 81.8784L2.74125 84.0494Z" fill="white" fill-opacity="0.5"/>
</svg>
