<svg width="139" height="74" viewBox="0 0 139 74" fill="none" xmlns="http://www.w3.org/2000/svg">
<path d="M138.149 63.8366C138.589 64.5385 138.377 65.4642 137.675 65.9042L126.237 73.075C125.535 73.5151 124.609 73.3028 124.169 72.6009C123.729 71.899 123.942 70.9733 124.644 70.5332L134.811 64.1592L128.437 53.992C127.997 53.2901 128.209 52.3644 128.911 51.9243C129.613 51.4843 130.538 51.6966 130.978 52.3985L138.149 63.8366ZM1.86889 0.0689562C24.3322 18.0273 43.01 30.3129 63.6195 39.8497C84.2373 49.3904 106.848 56.2081 137.214 63.1713L136.543 66.0954C106.089 59.1118 83.2489 52.2386 62.3597 42.5724C41.4622 32.9023 22.5769 20.4649 -0.00441409 2.41219L1.86889 0.0689562Z" fill="white" fill-opacity="0.5"/>
</svg>
