<svg width="139" height="74" viewBox="0 0 139 74" fill="none" xmlns="http://www.w3.org/2000/svg">
<path d="M0.850698 9.77073C0.410655 9.06883 0.622933 8.14311 1.32483 7.70307L12.7629 0.532256C13.4648 0.0922181 14.3905 0.304502 14.8306 1.00639C15.2706 1.70829 15.0583 2.63401 14.3564 3.07405L4.18924 9.44811L10.5633 19.6153C11.0033 20.3172 10.7911 21.2429 10.0892 21.6829C9.38727 22.123 8.46154 21.9107 8.02151 21.2088L0.850698 9.77073ZM137.131 73.5383C114.668 55.58 95.99 43.2944 75.3805 33.7575C54.7627 24.2169 32.1517 17.3992 1.78633 10.436L2.45685 7.51192C32.9114 14.4955 55.7511 21.3686 76.6403 31.0349C97.5378 40.705 116.423 53.1424 139.004 71.1951L137.131 73.5383Z" fill="white" fill-opacity="0.5"/>
</svg>
