<svg width="139" height="74" viewBox="0 0 139 74" fill="none" xmlns="http://www.w3.org/2000/svg">
<path d="M0.262808 63.8366C-0.177235 64.5385 0.0350427 65.4642 0.736938 65.9042L12.175 73.075C12.8769 73.5151 13.8026 73.3028 14.2427 72.6009C14.6827 71.899 14.4704 70.9733 13.7685 70.5332L3.60135 64.1592L9.97542 53.992C10.4155 53.2901 10.2032 52.3644 9.50128 51.9243C8.79938 51.4843 7.87367 51.6966 7.43362 52.3985L0.262808 63.8366ZM136.543 0.0689562C114.08 18.0273 95.4021 30.3129 74.7926 39.8497C54.1748 49.3904 31.5638 56.2081 1.19844 63.1713L1.86896 66.0954C32.3235 59.1118 55.1632 52.2386 76.0524 42.5724C96.9499 32.9023 115.835 20.4649 138.417 2.41219L136.543 0.0689562Z" fill="white" fill-opacity="0.5"/>
</svg>
